<svg width="162" height="48" viewBox="0 0 162 48" fill="none" xmlns="http://www.w3.org/2000/svg">
<path fill-rule="evenodd" clip-rule="evenodd" d="M26.5192 11.0006H2.48031C1.11021 11.0006 0 12.1111 0 13.4809V37.5198C0 38.8898 1.11047 40 2.48031 40H26.5192C27.8892 40 28.9995 38.8895 28.9995 37.5198V13.4809C28.9995 12.1108 27.889 11.0006 26.5192 11.0006ZM15.2377 26.9777C13.0699 26.9777 12.0847 24.8828 12.0847 22.9409C12.0847 19.8832 13.7415 18.7946 15.2912 18.7946C17.1931 18.7946 18.471 20.4486 18.471 22.9123C18.471 25.7226 16.8454 26.9777 15.2377 26.9777ZM22.5556 22.8584C22.5556 18.2757 19.942 15.1971 16.0549 15.1971C13.7935 15.1971 12.4844 16.2228 11.8529 16.9306C11.7771 16.3203 11.3789 15.5285 9.82318 15.5285H6.44434V19.0975H7.82917C8.06393 19.0975 8.13971 19.1724 8.13971 19.4094V35.7066H12.1664V29.5899C12.1664 29.425 12.1634 29.2705 12.159 29.1325C12.7875 29.7143 13.9896 30.5181 15.8662 30.5181C19.8023 30.5181 22.5556 27.369 22.5556 22.8584Z" fill="#192435"/>
<path fill-rule="evenodd" clip-rule="evenodd" d="M39.6401 18.8096C40.3534 18.0109 41.8321 16.8533 44.3867 16.8533C48.7773 16.8533 51.7296 20.3276 51.7296 25.4993C51.7296 30.5898 48.6195 34.1437 44.1734 34.1437C42.0536 34.1437 40.6958 33.2366 39.9859 32.58C39.9909 32.7357 39.9943 32.91 39.9943 33.0961V39.9991H35.4458V21.6071C35.4458 21.3396 35.3602 21.2551 35.0951 21.2551H33.5308V17.2273H37.3474C39.1047 17.2273 39.5545 18.1209 39.6401 18.8096ZM43.5239 20.9132C41.7734 20.9132 39.902 22.1418 39.902 25.5924C39.902 27.7839 41.0147 30.1481 43.4635 30.1481C45.2795 30.1481 47.1157 28.7317 47.1157 25.5603C47.1157 22.7798 45.6722 20.9132 43.5239 20.9132Z" fill="#192435"/>
<path d="M57.8377 29.4226V19.6765C57.8377 18.0299 57.0506 17.2278 55.4377 17.2278H51.3726V21.2554H52.9386C53.2021 21.2554 53.2876 21.3418 53.2876 21.6075V31.3196C53.2876 32.9916 54.0496 33.7684 55.6827 33.7684H59.7528V29.7763H58.1868C57.9351 29.7763 57.8377 29.6747 57.8377 29.4226Z" fill="#192435"/>
<path fill-rule="evenodd" clip-rule="evenodd" d="M64.9714 18.8096C65.6881 18.0109 67.1634 16.8533 69.7213 16.8533C74.1103 16.8533 77.0609 20.3276 77.0609 25.4993C77.0609 30.5898 73.9542 34.1437 69.5064 34.1437C67.3884 34.1437 66.0255 33.2366 65.3189 32.58C65.3239 32.7357 65.3289 32.91 65.3289 33.0961V39.9991H60.7771V21.6071C60.7771 21.3396 60.6916 21.2551 60.428 21.2551H58.8638V17.2273H62.6821C64.4394 17.2273 64.8875 18.1209 64.9714 18.8096ZM65.2332 25.5924C65.2332 27.7839 66.3511 30.1481 68.7931 30.1481C70.6142 30.1481 72.4487 28.7317 72.4487 25.5603C72.4487 22.7798 71.0052 20.9132 68.8569 20.9132C67.1047 20.9132 65.2332 22.1418 65.2332 25.5924Z" fill="#192435"/>
<path fill-rule="evenodd" clip-rule="evenodd" d="M77.293 25.5002C77.293 20.4097 80.7203 16.8541 85.6211 16.8541C89.9917 16.8541 92.9289 20.0154 92.9289 24.72C92.9289 25.1972 92.8399 26.1737 92.8314 26.2143L92.8063 26.5155H82.0193C82.4137 28.7156 84.082 30.1184 86.3613 30.1184C88.655 30.1184 90.4101 28.5605 90.5456 28.4402C90.5505 28.4359 90.5532 28.4335 90.5539 28.4329L90.8476 28.152L92.8298 31.4673L92.6468 31.65C92.5388 31.7554 90.0905 34.1445 86.0861 34.1445C80.9904 34.1445 77.293 30.5077 77.293 25.5002ZM85.6211 20.5687C83.9159 20.5687 82.6823 21.4894 82.1888 23.1123H88.231C88.0447 21.6197 86.9907 20.5687 85.6211 20.5687Z" fill="#192435"/>
<path fill-rule="evenodd" clip-rule="evenodd" d="M109.474 13.4488V29.4225C109.474 29.6747 109.571 29.7762 109.823 29.7762H111.355V33.7684H107.414C105.713 33.7684 105.254 32.8647 105.162 32.1505C104.455 32.9696 103.009 34.144 100.5 34.144C96.1089 34.144 93.1583 30.6714 93.1583 25.4997C93.1583 20.4092 96.2381 16.8537 100.652 16.8537C102.91 16.8537 104.221 17.6576 104.892 18.2685V15.3814C104.892 15.114 104.806 15.0294 104.543 15.0294H102.977V11H107.042C108.677 11 109.474 11.8022 109.474 13.4488ZM97.799 25.4997C97.799 28.3225 99.1988 30.1485 101.362 30.1485C103.113 30.1485 104.986 28.9216 104.986 25.4693C104.986 23.1999 103.883 20.9136 101.424 20.9136C99.2559 20.9136 97.799 22.7548 97.799 25.4997Z" fill="#192435"/>
<path d="M121.477 17.0092C119.584 17.0092 117.842 18.1109 116.808 19.8658V19.4885C116.808 17.9891 115.987 17.2275 114.376 17.2275H110.465V21.2552H112.03C112.293 21.2552 112.38 21.3399 112.38 21.6072V33.7682H116.929V27.1495C116.929 26.278 117.04 25.4387 117.254 24.6618C117.939 22.3789 119.759 21.5666 121.231 21.5666C121.752 21.5666 122.132 21.6225 122.138 21.6241L122.518 21.6817V17.1226L122.241 17.0752C122.227 17.0718 121.841 17.0092 121.477 17.0092Z" fill="#192435"/>
<path d="M128.992 29.4226V19.6766C128.992 18.0299 128.209 17.2278 126.595 17.2278H122.918V21.2555H124.093C124.359 21.2555 124.442 21.3418 124.442 21.6075V31.3196C124.442 32.9916 125.206 33.7684 126.843 33.7684H130.909V29.7763H129.341C129.09 29.7763 128.992 29.6747 128.992 29.4226Z" fill="#192435"/>
<path d="M146.165 17.2278H143.738C142.32 17.2278 141.559 17.7236 141.109 18.9404L138.144 27.292C138.041 27.6017 137.945 27.9486 137.863 28.282C137.778 27.9486 137.675 27.5966 137.563 27.2869L134.597 18.9387C134.142 17.7084 133.407 17.2278 131.971 17.2278H129.389V21.2555H130.058C130.415 21.2555 130.529 21.3774 130.613 21.6008L135.203 33.7685H140.319L144.909 21.6008C144.993 21.3774 145.111 21.2555 145.466 21.2555H146.165V17.2278Z" fill="#192435"/>
<path fill-rule="evenodd" clip-rule="evenodd" d="M145.672 25.5002C145.672 20.4097 149.099 16.8541 153.998 16.8541C158.371 16.8541 161.31 20.0154 161.31 24.72C161.31 25.1972 161.218 26.1737 161.213 26.2143L161.188 26.5155H150.397C150.792 28.7156 152.46 30.1184 154.741 30.1184C157.107 30.1184 158.915 28.4481 158.931 28.4329L159.232 28.152L161.21 31.4673L161.025 31.65C160.922 31.7515 158.472 34.1445 154.463 34.1445C149.367 34.1445 145.672 30.5077 145.672 25.5002ZM153.998 20.5687C152.294 20.5687 151.065 21.4894 150.567 23.1123H156.609C156.423 21.6197 155.371 20.5687 153.998 20.5687Z" fill="#192435"/>
<path d="M57.5271 11.0011H53.4722V15.308H57.5271V11.0011Z" fill="#192435"/>
<path d="M128.684 11.0011H124.627V15.308H128.684V11.0011Z" fill="#192435"/>
</svg>
